<?xml version="1.0" standalone="no"?>
<!DOCTYPE svg PUBLIC "-//W3C//DTD SVG 20010904//EN"
 "http://www.w3.org/TR/2001/REC-SVG-20010904/DTD/svg10.dtd">
<svg version="1.0" xmlns="http://www.w3.org/2000/svg"
 width="346.000000pt" height="346.000000pt" viewBox="0 0 346.000000 346.000000"
 preserveAspectRatio="xMidYMid meet">
<metadata>
Created by potrace 1.14, written by Peter Selinger 2001-2017
</metadata>
<g transform="translate(0.000000,346.000000) scale(0.100000,-0.100000)"
fill="#000000" stroke="none">
<path d="M1512 3370 c-98 -10 -274 -54 -382 -97 -390 -154 -694 -432 -879
-802 -125 -248 -180 -481 -181 -756 0 -355 91 -648 294 -950 69 -104 243 -281
366 -374 638 -480 1484 -447 2101 84 340 293 558 773 559 1230 0 752 -491
1411 -1205 1614 -61 17 -137 36 -170 41 -86 15 -393 20 -503 10z m312 -750
c-5 -5 -68 -36 -139 -68 -145 -65 -245 -124 -319 -186 -202 -168 -356 -547
-356 -872 0 -413 256 -796 543 -812 60 -4 75 -1 132 27 73 36 110 76 157 170
28 56 33 77 33 136 0 58 -5 78 -27 117 -79 133 -290 227 -518 231 -58 1 -128
-1 -157 -6 l-51 -7 -9 57 c-19 134 -2 345 39 486 l11 37 167 0 c302 0 468 -49
706 -208 388 -260 515 -647 334 -1017 -126 -257 -365 -432 -645 -475 -238 -36
-521 71 -689 262 -315 357 -353 1012 -90 1542 67 133 129 221 229 322 124 125
241 199 377 239 97 28 293 46 272 25z m-1054 -839 c0 -21 -12 -99 -26 -172
-17 -89 -28 -193 -34 -309 -9 -195 -13 -209 -84 -320 -78 -120 -108 -190 -131
-299 l-11 -54 -51 64 c-101 128 -210 333 -272 513 l-40 119 39 46 c56 68 188
192 245 231 65 45 348 218 358 219 4 1 7 -16 7 -38z"/>
</g>
</svg>
